<svg xmlns="http://www.w3.org/2000/svg" width="22.316" height="22.316" viewBox="0 0 22.316 22.316">
  <path id="Combined_Shape" data-name="Combined Shape" d="M13.833,21.542V19.85a.8.8,0,0,1,.84-.845h.84a.468.468,0,0,0,.336-.762L12.49,14.86a.821.821,0,0,1,0-1.184l1.175-1.184a.808.808,0,0,1,1.176,0L18.2,15.875a.452.452,0,0,0,.756-.338v-.846a.8.8,0,0,1,.84-.846h1.679a.8.8,0,0,1,.84.846v6.767a.8.8,0,0,1-.84.846H14.757a1.223,1.223,0,0,1-.174.013A.71.71,0,0,1,13.833,21.542ZM7.537,9.812,4.15,6.429a.457.457,0,0,0-.762.339v.846a.8.8,0,0,1-.847.846H.847A.8.8,0,0,1,0,7.614V.846A.8.8,0,0,1,.847,0H7.622a.8.8,0,0,1,.847.846V2.538a.8.8,0,0,1-.847.846H6.775a.468.468,0,0,0-.338.762L9.825,7.528a.818.818,0,0,1,0,1.184L8.639,9.9a.67.67,0,0,1-.476.181A.889.889,0,0,1,7.537,9.812Z" fill="#0285b9"/>
</svg>
