<svg xmlns="http://www.w3.org/2000/svg" width="24.408" height="22.316" viewBox="0 0 24.408 22.316">
  <path id="Combined_Shape" data-name="Combined Shape" d="M2.015,22.316A2.042,2.042,0,0,1,0,20.195a1.992,1.992,0,0,1,2.015-2.063H22.336a2.039,2.039,0,0,1,2.073,2.063,2.089,2.089,0,0,1-2.073,2.122Zm0-9.066A1.991,1.991,0,0,1,0,11.188,2.041,2.041,0,0,1,2.015,9.066H22.336a2.089,2.089,0,0,1,2.073,2.122,2.039,2.039,0,0,1-2.073,2.062Zm0-9.066A1.991,1.991,0,0,1,0,2.122,2.042,2.042,0,0,1,2.015,0H22.336a2.089,2.089,0,0,1,2.073,2.122,2.039,2.039,0,0,1-2.073,2.062Z" fill="#0285b9"/>
</svg>
